# xmcd CD database file
#
# Track frame offsets:
#	183
#	4180
#	81680
#	120395
#	180820
#	228728
#
# Disc length: 3842 seconds
#
# Revision: 0
# Processed by: cddbd v1.4PL0 Copyright (c) Steve Scherf et al.
# Submitted via: CDex 1.50
#
DISCID=410f0006
DTITLE=Jackie Mclean and Dexter Gordon - Montmartre Summit 1973
DYEAR=1973
DGENRE=Jazz
TTITLE0=Indtroduction By Jackie Mclean
TTITLE1=All Clean
TTITLE2=Rue De La Harpe
TTITLE3=Callin'
TTITLE4=Sunset
TTITLE5=On The Trail
EXTD=YEAR: 1973
EXTT0=
EXTT1=
EXTT2=
EXTT3=
EXTT4=
EXTT5=
PLAYORDER=
